<?xml version="1.0" encoding="UTF-8" standalone="no"?>
<svg
   xmlns:dc="http://purl.org/dc/elements/1.1/"
   xmlns:cc="http://creativecommons.org/ns#"
   xmlns:rdf="http://www.w3.org/1999/02/22-rdf-syntax-ns#"
   xmlns:svg="http://www.w3.org/2000/svg"
   xmlns="http://www.w3.org/2000/svg"
   xmlns:sodipodi="http://sodipodi.sourceforge.net/DTD/sodipodi-0.dtd"
   xmlns:inkscape="http://www.inkscape.org/namespaces/inkscape"
   version="1.1"
   width="133"
   height="100"
   id="svg3884"
   sodipodi:docname="osc2.svg"
   inkscape:version="0.92.2 5c3e80d, 2017-08-06">
  <metadata
     id="metadata3890">
    <rdf:RDF>
      <cc:Work
         rdf:about="">
        <dc:format>image/svg+xml</dc:format>
        <dc:type
           rdf:resource="http://purl.org/dc/dcmitype/StillImage" />
        <dc:title></dc:title>
      </cc:Work>
    </rdf:RDF>
  </metadata>
  <defs
     id="defs3888" />
  <sodipodi:namedview
     pagecolor="#ffffff"
     bordercolor="#666666"
     borderopacity="1"
     objecttolerance="10"
     gridtolerance="10"
     guidetolerance="10"
     inkscape:pageopacity="0"
     inkscape:pageshadow="2"
     inkscape:window-width="1191"
     inkscape:window-height="634"
     id="namedview3886"
     showgrid="false"
     inkscape:zoom="2.36"
     inkscape:cx="66.5"
     inkscape:cy="50"
     inkscape:window-x="0"
     inkscape:window-y="0"
     inkscape:window-maximized="0"
     inkscape:current-layer="svg3884" />
  <g
     aria-label="O"
     transform="scale(.9 1.0)"
     style="font-size:112px;font-family:Garamond;fill:#ffffff"
     id="text3878">
    <path
       d="m 5.140625,50.174683 q 0,-5.578125 1.3125,-9.898438 1.3671875,-4.375 4.539063,-9.460937 3.171875,-5.085938 7.656249,-8.476563 4.484375,-3.445312 12.414063,-6.070312 5.578125,-1.804688 14.109375,-1.804688 5.742187,0 11.210937,1.53125 5.523438,1.53125 10.007813,4.265625 4.484375,2.734375 8.96875,8.421875 3.117187,3.9375 4.703125,8.476563 2.078125,5.960937 2.078125,12.304687 0,7.21875 -1.421875,11.976563 -1.367188,4.757812 -4.648438,9.40625 -2.570312,3.609375 -8.804687,8.3125 -4.15625,3.171875 -10.335938,5.140625 Q 50.75,86.213745 43.585937,86.213745 36.3125,86.213745 30.625,84.518433 24.9375,82.82312 21.109375,80.41687 17.335937,77.955933 13.289063,73.19812 9.296875,68.440308 7.21875,62.69812 5.140625,56.955933 5.140625,50.174683 Z M 43.09375,84.190308 q 4.59375,0 9.515625,-1.257813 4.976562,-1.3125 8.804687,-4.265625 3.828125,-3.007812 5.960938,-6.78125 2.1875,-3.828125 3.5,-9.789062 1.3125,-5.960938 1.3125,-11.921875 0,-7.4375 -2.1875,-14.710938 -1.695313,-5.523437 -5.523438,-9.84375 -3.828125,-4.375 -9.242187,-6.726562 -5.414063,-2.40625 -11.539063,-2.40625 -4.976562,0 -9.734375,1.640625 -4.757812,1.640625 -7.820312,4.210937 -3.0625,2.515625 -5.6875,7.21875 -2.625,4.648438 -3.992188,10.28125 -1.367187,5.632813 -1.367187,9.953125 0,4.539063 1.367187,10.28125 1.367188,5.742188 3.71875,9.953125 2.40625,4.210938 5.851563,7.492188 3.5,3.226562 7.820312,4.976562 4.320313,1.695313 9.242188,1.695313 z"
       style="font-size:112px;font-family:Garamond;fill:#ffffff"
       id="path3892" />
  </g>
  <g
     aria-label="S"
     transform="scale(1.25 1.1)"
     style="font-size:112px;font-family:Garamond;fill:#ffffff"
     id="text3880">
    <path
       d="m 74.836563,12.035622 q 0.4375,3.609375 0.4375,4.15625 l -0.21875,4.867187 q -0.109375,3.117188 -0.273437,3.992188 -0.492188,0.21875 -0.820313,0.21875 l -0.492187,-0.109375 q -1.75,-7.65625 -5.960938,-11.15625 -4.15625,-3.5 -10.171875,-3.5 -6.234375,0 -10.226562,3.5 -3.992188,3.5 -3.992188,8.148437 0,3.554688 2.789063,6.507813 2.789062,2.953125 14.273437,8.859375 8.75,4.539062 12.523438,7.4375 3.773437,2.84375 5.6875,6.617187 1.914062,3.773438 1.914062,8.421875 0,5.851563 -3.0625,10.992188 -3.007812,5.140625 -8.148437,7.765625 -5.140625,2.570312 -13.617188,2.570312 -7.382812,0 -14.164062,-2.351562 -3.992188,-1.421875 -4.867188,-2.296875 -0.875,-0.875 -0.875,-1.859375 0,-0.601563 0.109375,-1.53125 0.765625,-6.453125 0.820313,-10.609375 0.109375,-2.570313 0.382812,-3.007813 0.21875,-0.382812 0.820313,-0.382812 0.492187,0 0.765625,0.382812 0.328125,0.328125 0.4375,1.3125 0.601562,6.726563 6.234375,12.03125 5.578125,5.304688 12.632812,5.304688 4.320313,0 7.929688,-1.804688 3.664062,-1.804687 5.6875,-5.195312 2.078125,-3.445313 2.078125,-6.671875 0,-4.429688 -3.117188,-8.09375 -3.117187,-3.664063 -12.523437,-8.53125 -9.40625,-4.921875 -12.25,-7.164063 -4.59375,-3.664062 -6.890625,-7.765625 -1.695313,-3.171875 -1.695313,-7.382812 0,-7.601563 6.015625,-12.851563 6.015625,-5.3046874 16.132813,-5.3046874 5.578125,0 9.625,1.2578125 2.953125,0.984375 6.070312,3.2265629 z"
       style="font-size:112px;font-family:Garamond;fill:#ffffff"
       id="path3895" />
  </g>
  <g
     aria-label="C"
     transform="scale(.9 1.0)"
     style="font-size:112px;font-family:Garamond;fill:#ffffff"
     id="text3882">
    <path
       d="m 142.08469,18.182495 q 0.65625,4.210938 0.65625,8.640625 0,0.875 -0.0547,2.351563 -0.76563,0.164062 -1.14844,0.164062 -0.32812,0 -0.92969,-0.109375 -2.29687,-6.398437 -7.49218,-9.84375 -5.19532,-3.445312 -12.85157,-3.445312 -4.04687,0 -6.83593,0.929687 -4.92188,1.695313 -8.64063,4.703125 -3.71875,2.953125 -6.289061,7.109375 -2.570313,4.101563 -4.101563,10.007813 -1.476562,5.851562 -1.476562,11.976562 0,11.703125 3.554687,19.359375 3.554689,7.601563 9.734379,10.882813 6.17968,3.226562 12.46875,3.226562 l 2.57031,-0.05469 q 4.375,-0.546875 5.96094,-1.039063 3.99218,-1.148437 6.5625,-2.679687 2.625,-1.585938 5.08593,-4.429688 2.51563,-2.84375 4.26563,-6.617187 l 0.65625,-0.21875 q 0.27344,0 0.82031,0.328125 -0.0547,1.3125 -0.10937,1.695312 -2.29688,9.242188 -3.33594,12.632813 -0.875,0.21875 -2.1875,0.65625 -6.39844,2.1875 -17.11719,2.1875 -8.64062,0 -12.96094,-1.203125 -4.26562,-1.148438 -9.351559,-3.609375 -5.03125,-2.515625 -8.859375,-6.617188 -3.828125,-4.101562 -6.179687,-10.335937 -2.351563,-6.289063 -2.351563,-13.671875 0,-7 1.859375,-12.195313 1.859375,-5.25 5.742188,-10.609375 3.882812,-5.359375 9.132812,-8.914062 5.304689,-3.554688 11.757809,-5.03125 4.53907,-0.984375 12.85157,-0.984375 6.07031,0 11.42968,1.640625 5.35938,1.585937 7.16407,3.117187 z"
       style="font-size:112px;font-family:Garamond;fill:#ffffff"
       id="path3898" />
  </g>
</svg>
